<svg width="1440" height="860" viewBox="0 0 1440 860" xmlns="http://www.w3.org/2000/svg" role="img" aria-label="Enterprise RAG governance flywheel premium diagram">
  <defs>
    <linearGradient id="bg" x1="0" y1="0" x2="1" y2="1"><stop offset="0%" stop-color="#09182C"/><stop offset="100%" stop-color="#12355C"/></linearGradient>
    <marker id="arr" markerWidth="10" markerHeight="10" refX="9" refY="5" orient="auto"><path d="M0 0 L10 5 L0 10 z" fill="#BFE8FF"/></marker>
    <style>
      .title{font:700 44px 'Segoe UI';fill:#EAF4FF}
      .n{font:700 16px 'Segoe UI';fill:#EFF8FF}
      .s{font:500 13px 'Segoe UI';fill:#CFE6FF}
    </style>
  </defs>
  <rect width="1440" height="860" fill="url(#bg)"/>
  <text class="title" x="88" y="80">Governance and Evaluation Flywheel</text>

  <g transform="translate(720 455)">
    <circle cx="0" cy="0" r="290" fill="#0F2A4A" stroke="#3F8DD6" stroke-width="2"/>
    <circle cx="0" cy="0" r="120" fill="#123A63" stroke="#69B8F2"/>
    <text x="-38" y="-8" class="n">CONTROL</text>
    <text x="-55" y="16" class="n">CENTER</text>

    <circle cx="0" cy="-230" r="64" fill="#153C64" stroke="#66B2F0"/><text x="-34" y="-224" class="n">Log</text>
    <circle cx="198" cy="-116" r="64" fill="#14505D" stroke="#58C7CF"/><text x="160" y="-110" class="n">Evaluate</text>
    <circle cx="198" cy="116" r="64" fill="#4D2938" stroke="#FF8FB2"/><text x="164" y="122" class="n">Review</text>
    <circle cx="0" cy="230" r="64" fill="#58461F" stroke="#EDB472"/><text x="-28" y="236" class="n">Tune</text>
    <circle cx="-198" cy="116" r="64" fill="#58461F" stroke="#EDB472"/><text x="-232" y="122" class="n">Release</text>
    <circle cx="-198" cy="-116" r="64" fill="#153C64" stroke="#66B2F0"/><text x="-234" y="-110" class="n">Monitor</text>

    <path d="M55 -215 C110 -190,145 -165,165 -145" stroke="#BFE8FF" stroke-width="3" fill="none" marker-end="url(#arr)"/>
    <path d="M230 -60 L230 60" stroke="#BFE8FF" stroke-width="3" marker-end="url(#arr)"/>
    <path d="M165 145 C130 180,90 205,40 220" stroke="#BFE8FF" stroke-width="3" fill="none" marker-end="url(#arr)"/>
    <path d="M-40 220 C-90 205,-130 180,-165 145" stroke="#BFE8FF" stroke-width="3" fill="none" marker-end="url(#arr)"/>
    <path d="M-230 60 L-230 -60" stroke="#BFE8FF" stroke-width="3" marker-end="url(#arr)"/>
    <path d="M-165 -145 C-130 -180,-90 -205,-40 -220" stroke="#BFE8FF" stroke-width="3" fill="none" marker-end="url(#arr)"/>
  </g>

  <text class="s" x="420" y="812">Purpose: keep quality and safety rising while deployment velocity remains operationally stable.</text>
</svg>
