<svg width="1200" height="630" viewBox="0 0 1200 630" xmlns="http://www.w3.org/2000/svg" role="img" aria-label="Lorvex AI Open Graph">
  <defs>
    <linearGradient id="bg" x1="0" y1="0" x2="1" y2="1">
      <stop offset="0%" stop-color="#08192F"/>
      <stop offset="100%" stop-color="#1A4F84"/>
    </linearGradient>
    <linearGradient id="line" x1="0" y1="0" x2="1" y2="0">
      <stop offset="0%" stop-color="#57A9F5" stop-opacity="0.1"/>
      <stop offset="100%" stop-color="#9FD5FF" stop-opacity="0.75"/>
    </linearGradient>
  </defs>

  <rect width="1200" height="630" fill="url(#bg)"/>
  <ellipse cx="970" cy="40" rx="520" ry="320" fill="#5CAFF8" fill-opacity="0.14"/>
  <ellipse cx="300" cy="680" rx="640" ry="280" fill="#2F80ED" fill-opacity="0.12"/>

  <g opacity="0.24">
    <path d="M0 120 H1200" stroke="url(#line)"/>
    <path d="M0 200 H1200" stroke="url(#line)"/>
    <path d="M0 280 H1200" stroke="url(#line)"/>
    <path d="M0 360 H1200" stroke="url(#line)"/>
    <path d="M0 440 H1200" stroke="url(#line)"/>
    <path d="M0 520 H1200" stroke="url(#line)"/>
    <path d="M120 0 V630" stroke="url(#line)"/>
    <path d="M240 0 V630" stroke="url(#line)"/>
    <path d="M360 0 V630" stroke="url(#line)"/>
    <path d="M480 0 V630" stroke="url(#line)"/>
    <path d="M600 0 V630" stroke="url(#line)"/>
    <path d="M720 0 V630" stroke="url(#line)"/>
    <path d="M840 0 V630" stroke="url(#line)"/>
    <path d="M960 0 V630" stroke="url(#line)"/>
    <path d="M1080 0 V630" stroke="url(#line)"/>
  </g>

  <rect x="72" y="72" width="260" height="74" rx="14" fill="#12375D" fill-opacity="0.78" stroke="#6EB6F2" stroke-opacity="0.55"/>
  <text x="102" y="117" font-family="Inter, Arial, sans-serif" font-size="24" fill="#D9EEFF" letter-spacing="3">LORVEX AI</text>

  <image href="Logo.png" x="72" y="180" width="300" height="76" preserveAspectRatio="xMinYMid meet"/>

  <text x="72" y="340" font-family="Inter, Arial, sans-serif" font-size="58" font-weight="700" fill="#EAF5FF">
    Operationalizing Agentic AI
  </text>
  <text x="72" y="408" font-family="Inter, Arial, sans-serif" font-size="58" font-weight="700" fill="#EAF5FF">
    for Enterprise Scale
  </text>

  <text x="72" y="484" font-family="Inter, Arial, sans-serif" font-size="28" fill="#C8E4FA">
    Production-ready LLM systems with governance-first controls
  </text>

  <rect x="72" y="528" width="380" height="44" rx="12" fill="#10365B" stroke="#74BCF6" stroke-opacity="0.6"/>
  <text x="95" y="556" font-family="Inter, Arial, sans-serif" font-size="20" fill="#DDF1FF">
    Finance  Healthcare  NHS  Enterprise
  </text>
</svg>
